<svg width="710" height="609" viewBox="0 0 710 609" fill="none" xmlns="http://www.w3.org/2000/svg">
<path d="M554.568 26.3597C595.267 52.0595 618.699 92.7119 647.065 133.364C675.431 173.549 708.113 214.669 709.963 256.723C711.196 298.778 681.597 342.234 651.381 405.782C621.166 469.798 590.333 553.439 523.119 588.952C455.905 624.464 352.308 611.381 296.193 560.915C240.078 509.983 231.445 421.202 178.414 366.064C125.382 310.927 27.9523 289.899 5.13635 252.985C-17.0629 216.071 35.9686 163.737 101.333 140.841C166.698 117.944 245.012 124.486 296.193 102.525C347.375 80.5629 372.041 30.0978 413.356 10.4725C455.288 -9.62006 513.253 1.12714 554.568 26.3597Z" fill="#6D28D9"/>
</svg>
