<svg width="48" height="39" viewBox="0 0 48 39" fill="none" xmlns="http://www.w3.org/2000/svg">
<path d="M45.8655 3.68495C45.5439 3.19596 45.162 2.73026 44.7198 2.30781C43.3965 1.03379 41.6913 0.228791 39.9259 0.0458377C36.8774 -0.273499 33.735 1.09034 31.524 3.68828C29.7217 5.80388 28.8105 8.35858 28.2812 10.2946C28.2176 10.5208 28.1606 10.7403 28.1104 10.9499C27.695 12.5931 27.3968 14.2464 27.1322 15.8697C27.0518 16.3553 26.9747 16.841 26.8977 17.3233C26.5761 19.3458 26.2746 21.2585 25.8055 23.1246C24.767 27.266 23.0418 30.1933 20.68 31.8265C19.3132 32.7712 17.6281 33.2569 15.9297 33.2868C15.9565 33.3534 15.9833 33.4166 16.0101 33.4864C16.526 34.8835 16.4389 36.4303 15.7722 37.7376C15.5411 38.19 15.2429 38.6058 14.8945 38.9684C18.0972 39.1746 21.3467 38.3729 23.9831 36.5534C27.4873 34.1351 29.9663 30.1201 31.3431 24.6215C31.8724 22.5125 32.2074 20.3869 32.5357 18.3312C32.6027 17.9054 32.6697 17.4863 32.7367 17.0672C32.9947 15.4805 33.266 13.9536 33.6446 12.4601C33.7317 12.1141 33.8221 11.7881 33.9159 11.4754C34.4452 9.70246 35.0851 8.40848 35.8992 7.45047C36.8908 6.28622 38.2877 5.61095 39.4535 5.73403C39.5976 5.74733 39.7383 5.78393 39.879 5.8305C40.3982 6.0068 40.8806 6.37936 41.1386 6.79183C41.4166 7.191 41.5674 7.77978 41.5205 8.32199C41.5071 8.46835 41.4803 8.61472 41.4367 8.74777C41.0783 9.8588 39.8957 10.8567 38.4217 11.2892C37.6512 11.5154 36.7802 11.6218 35.7752 11.6085C35.7652 11.6351 35.7585 11.6651 35.7484 11.6917C35.6546 12.0043 35.5642 12.3303 35.4771 12.6763C35.0985 14.1665 34.8305 15.6867 34.5726 17.2701C36.2576 17.3932 38.204 17.3399 40.1302 16.7744C43.4166 15.8098 45.9358 13.5012 46.8705 10.6006C47.4132 8.92075 47.3562 7.04797 46.713 5.33153C46.4986 4.75939 46.2273 4.22383 45.9023 3.73485C45.8956 3.72819 45.8923 3.71821 45.8856 3.71156C45.8755 3.70158 45.8688 3.69493 45.8655 3.68495Z" fill="#875CFF"/>
<path d="M13.5813 36.58C14.3451 35.0831 13.6416 33.2436 12.0737 32.5683C11.6282 32.3754 11.1927 32.1392 10.8007 31.8365C9.58803 30.9051 8.40213 29.8473 7.55122 28.55C6.69697 27.2527 6.10066 25.7691 5.82931 24.2722C5.57806 22.8784 5.70871 21.4281 6.14756 20.0776C6.78742 18.115 8.08387 16.362 9.81583 15.3075C12.2714 13.8172 15.6616 13.4281 19.8994 14.1499C21.6247 14.4459 23.3298 14.875 25.112 15.3407C25.3666 13.7973 25.6547 12.2339 26.05 10.6738C26.1036 10.4642 26.1606 10.248 26.2209 10.0185C26.2443 9.93863 26.2678 9.85214 26.2912 9.76898C24.4923 9.29995 22.6431 8.83758 20.7436 8.51159C15.1223 7.55358 10.4222 8.18893 6.78072 10.401C1.88969 13.3881 -0.813778 19.4622 0.218028 25.1803C0.63008 27.4722 1.81264 29.6277 3.06554 31.5837C4.42565 33.7059 6.22126 35.7018 8.23128 36.9725C8.83428 37.355 9.40043 37.6478 9.90964 37.8706C11.2999 38.4827 12.9012 37.9139 13.5813 36.58Z" fill="#875CFF"/>
</svg>
